PERFORMER "Placebo"
TITLE "BEST OF DARK SONGS  - Greatest Hits"
FILE "Placebo - BEST OF DARK SONGS  - Greatest Hits.mp3" MP3
  TRACK 01 AUDIO
    PERFORMER "Placebo"
    TITLE "Pure Morning"
    INDEX 01 00:00:00
  TRACK 02 AUDIO
    PERFORMER "Placebo"
    TITLE "Ask for Answers"
    INDEX 01 03:58:00
  TRACK 03 AUDIO
    PERFORMER "Placebo"
    TITLE "Begin the End"
    INDEX 01 09:17:00
  TRACK 04 AUDIO
    PERFORMER "Placebo"
    TITLE "Burger Queen"
    INDEX 01 15:18:00
  TRACK 05 AUDIO
    PERFORMER "Placebo"
    TITLE "Centrefolds"
    INDEX 01 21:33:00
  TRACK 06 AUDIO
    PERFORMER "Placebo"
    TITLE "Come Undone"
    INDEX 01 26:31:00
  TRACK 07 AUDIO
    PERFORMER "Placebo"
    TITLE "Hold on to Me"
    INDEX 01 31:10:00
  TRACK 08 AUDIO
    PERFORMER "Placebo"
    TITLE "Lady of the Flowers"
    INDEX 01 36:05:00
  TRACK 09 AUDIO
    PERFORMER "Placebo"
    TITLE "My Sweet Prince"
    INDEX 01 40:52:00
  TRACK 10 AUDIO
    PERFORMER "Placebo"
    TITLE "Narcoleptic"
    INDEX 01 46:37:00
  TRACK 11 AUDIO
    PERFORMER "Placebo"
    TITLE "Passive Aggressive"
    INDEX 01 51:00:00
  TRACK 12 AUDIO
    PERFORMER "Placebo"
    TITLE "Peeping Tom"
    INDEX 01 56:24:00
  TRACK 13 AUDIO
    PERFORMER "Placebo"
    TITLE "Pierrot the Clown"
    INDEX 01 61:41:00
  TRACK 14 AUDIO
    PERFORMER "Placebo"
    TITLE "Protège moi"
    INDEX 01 66:04:00
  TRACK 15 AUDIO
    PERFORMER "Placebo"
    TITLE "Sleeping With Ghosts"
    INDEX 01 69:21:00
  TRACK 16 AUDIO
    PERFORMER "Placebo"
    TITLE "Special Needs"
    INDEX 01 74:00:00
  TRACK 17 AUDIO
    PERFORMER "Placebo"
    TITLE "The Crawl"
    INDEX 01 77:30:00
  TRACK 18 AUDIO
    PERFORMER "Placebo"
    TITLE "If Only Tonight We Could Sleep (with The Cure)"
    INDEX 01 80:31:00
  TRACK 19 AUDIO
    PERFORMER "Placebo"
    TITLE "Without You I'm Nothing (with David Bowie)"
    INDEX 01 84:56:00
